<?xml version="1.0" standalone="no"?><!DOCTYPE svg PUBLIC "-//W3C//DTD SVG 1.1//EN" "http://www.w3.org/Graphics/SVG/1.1/DTD/svg11.dtd"><svg t="1757729464296" class="icon" viewBox="0 0 1024 1024" version="1.1" xmlns="http://www.w3.org/2000/svg" p-id="1551" xmlns:xlink="http://www.w3.org/1999/xlink" width="200" height="200"><path d="M372.265 446.408c-92.882 45.368-187.459 65.47-290.335 65.572C165.181 369.198 199.818 81.95 199.818 81.95c27.817 132.06 88.786 255.566 172.447 364.458z" fill="#FF5757" p-id="1552"></path><path d="M81.93 529.92a17.95 17.95 0 0 1-15.488-26.982C146.898 364.958 181.673 82.637 182.016 79.8a17.93 17.93 0 0 1 17.014-15.774c8.796-0.451 16.522 5.637 18.33 14.228 26.403 125.338 83.302 245.52 169.118 357.222a17.961 17.961 0 0 1-6.349 27.065c-92.61 45.235-190.146 67.277-298.183 67.39 0-0.011-0.01-0.011-0.016-0.011z m122.711-360.028c-15.344 88.514-44.938 226.652-92.472 323.497 83.01-3.502 159.508-21.233 232.479-53.868-62.987-85.57-109.876-175.908-140.007-269.63z" fill="" p-id="1553"></path><path d="M729.82 751.703c-138.224-76.851-262.569-181.637-357.55-305.295 109.333-53.474 216.356-142.009 331.986-274.279-6.815 164.875-40.684 426.542 25.564 579.574z" fill="#76E276" p-id="1554"></path><path d="M729.815 769.644a17.92 17.92 0 0 1-8.704-2.258c-142.623-79.294-268.165-186.507-363.06-310.047a17.946 17.946 0 0 1 6.345-27.054c106.204-51.943 212.96-140.252 326.369-269.973a17.946 17.946 0 0 1 20.142-4.848 17.95 17.95 0 0 1 11.269 17.403c-1.254 30.33-3.405 63.8-5.693 99.235-10.082 156.544-22.626 351.366 29.798 472.464A17.971 17.971 0 0 1 741.868 765a17.961 17.961 0 0 1-12.053 4.644zM399.857 452.51c80.558 100.454 182.195 189.127 296.842 259.118-36.27-127.273-25.15-299.91-16.01-441.836 1.06-16.43 2.089-32.435 3.015-47.877-98.165 106.665-189.614 180.91-283.847 230.595z" fill="" p-id="1555"></path><path d="M704.25 172.13C588.62 304.4 481.593 392.94 372.266 446.407 288.605 337.516 227.635 214.01 199.818 81.95c151.189 88.381 307.395 108.887 504.433 90.178z" fill="#FFDD50" p-id="1556"></path><path d="M372.275 464.353a17.93 17.93 0 0 1-14.223-7.009c-89.119-115.999-148.265-241.05-175.78-371.697a17.95 17.95 0 0 1 7.055-18.252 17.92 17.92 0 0 1 19.533-0.943c138.926 81.219 286.597 107.474 493.696 87.808a17.859 17.859 0 0 1 17.654 9.682 17.956 17.956 0 0 1-2.468 20c-118.226 135.234-225.5 223.753-337.602 278.583a17.848 17.848 0 0 1-7.865 1.828zM226.57 117.12c28.17 106.967 78.833 209.864 150.974 306.545 92.518-47.847 185.646-123.423 283.412-230.052-175.211 11.479-309.284-12.083-434.386-76.493z" fill="" p-id="1557"></path><path d="M729.82 751.703C349.317 704.077 194.028 614.001 81.935 511.98c102.877-0.103 197.448-20.199 290.335-65.572 94.981 123.658 219.32 228.444 357.55 305.295z" fill="#5CB9FF" p-id="1558"></path><path d="M729.83 769.644c-0.742 0-1.484-0.047-2.237-0.139-396.749-49.659-550.584-146.744-657.725-244.254a17.946 17.946 0 0 1 12.047-31.217c102.472-0.102 194.872-20.956 282.486-63.754a17.93 17.93 0 0 1 22.082 5.191c91.935 119.685 213.668 223.611 352.046 300.544a17.95 17.95 0 0 1-8.699 33.629zM128.553 528.47c93.496 75.812 231.01 148.285 516.987 193.265C538.332 651.57 443.259 565.37 366.966 468.792c-75.116 34.74-153.61 54.41-238.413 59.679z" fill="" p-id="1559"></path><path d="M942.075 896.379l-66.191 45.68s-86.585-23.121-91.705-85.002c-5.074-61.829 1.69-75.617-54.359-105.354 79.821-13.635 134.18 28.452 135.92 67.978 1.69 39.527 76.335 76.698 76.335 76.698z" fill="#FFDD50" p-id="1560"></path><path d="M875.884 960c-1.547 0-3.103-0.2-4.624-0.604-4.034-1.075-98.857-27.228-104.955-100.859a1184.86 1184.86 0 0 1-1.5-21.202c-2.77-42.906-3.128-48.425-43.382-69.78a17.935 17.935 0 1 1 5.381-33.536c47.954-8.192 93.215 1.443 124.181 26.44 19.835 16.004 31.734 37.309 32.67 58.434 0.84 19.681 40.131 48.281 66.422 61.43a17.95 17.95 0 0 1 2.182 30.827l-66.192 45.68a17.971 17.971 0 0 1-10.183 3.17z m-92.672-191.048c13.22 16.645 15.416 35.682 17.377 66.069 0.4 6.215 0.834 13.025 1.454 20.567 3.23 39.055 51.855 59.965 70.912 66.693l35.533-24.52c-25.457-16.476-59.264-44.426-60.667-77.312-0.476-10.823-7.532-22.517-19.359-32.061-12.175-9.836-27.71-16.4-45.25-19.436z" fill="" p-id="1561"></path></svg>